<svg width="430" height="939" viewBox="0 0 430 939" fill="none" xmlns="http://www.w3.org/2000/svg">
<g clip-path="url(#clip0_3097_470)">
<path d="M-793.063 121.782C-870.8 113.804 -970.919 83.4534 -971.212 44.1458L-971.901 -4.83439C-971.956 -8.73086 -968.818 -11.922 -964.921 -11.9328L873.681 -17.0619C877.516 -17.0726 880.646 -13.9952 880.699 -10.1604L882.884 145.089C882.967 151.02 875.756 154.998 870.431 152.384C802.139 118.861 559.234 73.4216 501.44 73.8519C303.889 75.323 238.831 184.27 -4.11254 168.507C-258.757 151.985 -274.944 58.9045 -461.558 56.0606C-634.737 53.4215 -608.296 140.744 -793.063 121.782Z" fill="url(#paint0_linear_3097_470)"/>
<path d="M-271.01 104.542C-334.563 96.8493 -416.435 67.7817 -416.714 30.2684L-417.324 -16.21C-417.375 -20.0844 -414.268 -23.2631 -410.394 -23.3015L961.867 -36.923C965.724 -36.9613 968.886 -33.8721 968.936 -30.0152L971.049 131.04C971.13 137.223 963.528 140.699 958.523 137.067C922.844 111.176 867.994 96.0603 822.85 96.3964C661.366 97.5989 655.031 216.054 456.424 200.762C248.251 184.735 254.965 39.5235 102.417 36.6192C-39.1484 33.924 -119.955 122.826 -271.01 104.542Z" fill="#A3ABEB" fill-opacity="0.35"/>
</g>
<defs>
<linearGradient id="paint0_linear_3097_470" x1="-44.2579" y1="75.6266" x2="-47.0604" y2="-212.101" gradientUnits="userSpaceOnUse">
<stop stop-color="#30CFD0" stop-opacity="0.1"/>
<stop offset="1" stop-color="#330867"/>
</linearGradient>
<clipPath id="clip0_3097_470">
<rect width="430" height="939" fill="white"/>
</clipPath>
</defs>
</svg>
