<svg width="430" height="932" viewBox="0 0 430 932" fill="none" xmlns="http://www.w3.org/2000/svg">
<g clip-path="url(#clip0_3098_4106)">
<path d="M10.7389 572.228C12.2159 572.799 13.6396 573.393 15.0088 574.011C59.6694 593.816 87.2866 645.258 79.2312 693.645C78.6927 696.891 78.0307 700.223 77.3534 703.595C74.3128 718.526 71.2076 733.969 79.4194 745.439C88.8898 758.741 108.716 759.22 123.656 757.319C125.767 757.058 127.946 756.734 130.112 756.449C145.18 754.328 160.806 752.154 174.436 759.077C195.346 769.709 200.677 796.619 196.828 817.113C189.909 853.648 156.872 883.908 119.944 887.455C98.4629 889.522 76.2147 882.589 57.3374 867.853C51.5373 863.325 46.431 857.809 41.4732 852.485C35.6781 846.21 29.6792 839.766 22.747 835.16C4.1266 822.766 -19.1719 836.017 -41.6995 848.894C-52.8137 855.233 -63.2506 861.206 -72.8399 863.828C-93.747 869.615 -113.523 868.078 -128.603 859.474C-146.715 849.114 -156.315 827.822 -150.928 809.941C-144.852 789.813 -123.708 779.362 -106.754 770.972C-90.1929 762.789 -70.8583 751.011 -68.0579 732.31C-66.8441 724.076 -69.0868 715.54 -71.3177 707.322C-71.8008 705.565 -72.2449 703.824 -72.6887 702.082C-79.8112 673.448 -78.3657 642.292 -68.5926 614.44C-62.9465 598.319 -51.9151 577.503 -31.4521 569.975C-16.5361 564.431 -0.922603 567.725 10.7389 572.228ZM90.688 758.942C84.8961 756.705 79.7722 753.201 75.9758 747.878C66.7266 734.93 70.0082 718.568 73.21 702.758C73.8571 699.464 74.5424 696.185 75.0668 692.978C82.8231 646.405 56.248 596.891 13.2529 577.864C2.02051 572.943 -14.5912 568.187 -30.0947 573.863C-49.0241 580.773 -59.3933 600.454 -64.7228 615.755C-74.2245 642.904 -75.6406 673.174 -68.7049 701.019C-68.2995 702.746 -67.8012 704.463 -67.3571 706.204C-65.0672 714.849 -62.6731 723.803 -64.0488 732.917C-67.1384 753.525 -87.5792 766.086 -105.034 774.731C-121.272 782.771 -141.484 792.773 -147.052 811.124C-151.81 826.915 -142.87 846.562 -126.66 855.828C-112.568 863.871 -93.8697 865.306 -74.059 859.813C-65.0031 857.299 -54.7435 851.438 -43.875 845.273C-21.3618 832.436 4.15272 817.841 24.9336 831.698C32.2858 836.601 38.4343 843.237 44.3939 849.666C49.2104 854.89 54.2307 860.283 59.7653 864.574C77.83 878.638 99.0232 885.297 119.443 883.314C154.583 879.884 186.058 851.129 192.614 816.339C196.209 797.316 191.426 772.457 172.463 762.8C159.977 756.498 145.07 758.546 130.612 760.589C128.432 760.913 126.267 761.198 124.101 761.484C113.771 762.787 101.183 762.995 90.688 758.942Z" fill="#92D1F0" fill-opacity="0.571572"/>
<path d="M71.2564 577.547C89.3378 584.53 105.501 596.596 117.078 612.4C129.044 628.712 135.254 645.982 135.595 663.808C135.942 681.501 130.166 694.948 123.498 710.47C117.495 724.502 112.303 731.903 108.134 737.819C103.752 744.054 100.292 748.944 97.3728 759.06C93.1551 773.468 88.0596 799.675 101.088 813.352C108.366 821.001 116.457 821.662 126.713 822.531C135.107 823.22 144.623 824.029 155.852 828.769C176.02 837.319 187.243 862.527 180.826 884.954C175.064 905.216 155.851 921.85 133.079 926.315C112.874 930.292 90.5004 925.593 70.1574 913.079C57.5699 905.351 48.1909 894.427 39.1275 883.849C22.0415 863.947 7.30622 846.789 -23.6748 855.429C-28.159 856.699 -32.6946 858.217 -37.1215 859.688C-49.5053 863.864 -62.291 868.154 -75.6199 866.993C-91.3371 865.626 -105.928 856.229 -113.749 842.548C-121.569 828.866 -122.145 811.533 -115.328 797.368C-109.185 784.599 -97.9313 775.329 -87.0377 766.41C-74.6135 756.203 -62.9054 746.57 -58.3747 732.283C-54.8686 721.229 -56.4826 709.139 -58.0601 697.42C-58.4544 694.491 -58.8254 691.615 -59.1561 688.755C-62.5821 657.42 -56.2345 628.202 -41.2506 606.485C-19.1675 574.52 21.0735 571.068 32.8528 570.779C45.9601 570.422 59.0331 572.827 71.2564 577.547ZM108.934 823.594C105.147 822.131 101.503 819.829 98.0537 816.211C83.5991 800.999 88.8913 773.12 93.347 757.864C96.4829 747.07 100.324 741.656 104.722 735.38C108.991 729.325 113.801 722.447 119.653 708.806C126.115 693.698 131.727 680.68 131.391 663.886C131.061 646.961 125.118 630.511 113.69 614.899C95.058 589.472 64.1098 574.206 33.0297 574.969C24.9255 575.154 -16.3216 577.724 -37.7162 608.836C-52.1194 629.746 -58.2226 657.984 -54.895 688.296C-54.6029 691.141 -54.1937 694.032 -53.8075 696.868C-52.185 709.051 -50.4881 721.622 -54.286 733.548C-59.214 748.981 -71.9686 759.464 -84.2842 769.624C-94.8081 778.282 -105.731 787.277 -111.45 799.178C-117.707 812.127 -117.142 827.979 -110.036 840.487C-102.89 853.012 -89.5467 861.57 -75.175 862.82C-62.7564 863.898 -50.3734 859.721 -38.4081 855.697C-33.9258 854.203 -29.3364 852.66 -24.7593 851.382C8.78538 842.03 25.1059 861.009 42.3808 881.119C51.2702 891.45 60.4361 902.112 72.4293 909.521C91.6128 921.319 113.434 925.939 132.328 922.217C153.588 918.064 171.488 902.625 176.824 883.812C182.578 863.682 172.241 840.249 154.229 832.621C143.626 828.123 134.437 827.397 126.361 826.696C120.105 826.161 114.323 825.675 108.934 823.594Z" fill="#EBC48B" fill-opacity="0.4"/>
<path d="M557.173 337.623C556.955 339.191 556.701 340.713 556.412 342.187C547.319 390.189 503.535 428.814 454.587 432.011C451.303 432.228 447.908 432.343 444.47 432.453C429.24 432.899 413.495 433.4 404.201 444.012C393.411 456.267 397.468 475.68 402.728 489.792C403.463 491.788 404.277 493.836 405.048 495.879C410.551 510.066 416.233 524.784 412.602 539.634C407.022 562.418 382.037 573.748 361.206 574.676C324.056 576.276 287.056 551.014 275.177 515.87C268.263 495.427 269.937 472.184 279.978 450.442C283.063 443.762 287.269 437.532 291.321 431.49C296.108 424.416 301.014 417.105 303.917 409.305C311.736 388.348 293.518 368.687 275.841 349.692C267.133 340.317 258.937 331.518 254.196 322.78C243.791 303.745 240.776 284.14 245.712 267.494C251.666 247.497 270.206 233.291 288.845 234.456C309.828 235.78 324.828 253.982 336.864 268.575C348.611 282.832 364.489 298.969 383.336 297.429C391.629 296.732 399.429 292.601 406.921 288.554C408.522 287.683 410.115 286.853 411.71 286.023C437.963 272.556 468.628 266.855 497.975 270.015C514.959 271.834 537.743 277.825 549.741 296.031C558.542 309.289 558.898 325.242 557.173 337.623ZM393.626 458.064C394.482 451.915 396.725 446.126 401.041 441.215C411.537 429.256 428.217 428.718 444.34 428.228C447.695 428.107 451.043 428.026 454.285 427.805C501.399 424.73 543.545 387.559 552.26 341.357C554.488 329.298 555.329 312.039 546.265 298.24C535.218 281.386 513.691 275.781 497.577 274.083C468.977 271.026 439.182 276.554 413.654 289.66C412.065 290.448 410.507 291.325 408.913 292.155C401.018 296.357 392.847 300.731 383.66 301.471C362.891 303.164 345.997 286.129 333.597 271.107C322.065 257.132 307.715 239.735 288.578 238.501C272.117 237.471 255.028 250.658 249.705 268.554C245.089 284.109 247.958 302.642 257.827 320.677C262.34 328.921 270.388 337.572 278.87 346.747C296.505 365.738 316.537 387.25 307.786 410.644C304.69 418.921 299.632 426.421 294.733 433.69C290.745 439.572 286.639 445.69 283.725 452.058C274.153 472.855 272.505 495.009 279.094 514.438C290.452 547.868 325.63 571.952 360.998 570.398C380.339 569.557 403.452 559.228 408.527 538.562C411.814 524.968 406.418 510.921 401.131 497.311C400.318 495.262 399.546 493.22 398.774 491.176C395.148 481.416 392.074 469.207 393.626 458.064Z" fill="#92D1F0" fill-opacity="0.571572"/>
<path d="M565.803 397.758C563.129 416.956 555.07 435.446 542.324 450.324C529.172 465.695 513.775 475.681 496.497 480.081C479.35 484.456 464.939 481.9 448.306 478.949C433.275 476.307 424.884 472.94 418.173 470.231C411.102 467.387 405.551 465.134 395.036 464.6C380.047 463.78 353.368 464.799 343.024 480.604C337.238 489.435 338.44 497.464 339.933 507.647C341.178 515.978 342.562 525.427 340.509 537.441C336.786 559.028 314.804 575.706 291.504 574.575C270.462 573.589 249.882 558.677 240.34 537.525C231.858 518.76 231.327 495.905 238.871 473.243C243.523 459.224 252.019 447.6 260.25 436.362C275.728 415.186 289.072 396.925 273.591 368.732C271.331 364.656 268.819 360.587 266.377 356.612C259.485 345.508 252.391 334.038 250.48 320.796C248.225 305.181 254.046 288.831 265.581 278.095C277.118 267.36 293.862 262.844 309.209 266.249C323.043 269.317 334.637 278.159 345.805 286.73C358.577 296.498 370.628 305.699 385.572 306.851C397.134 307.742 408.538 303.412 419.587 299.203C422.349 298.15 425.064 297.133 427.773 296.159C457.5 285.674 487.396 285.188 511.959 294.821C548.12 309.029 560.662 347.421 563.63 358.824C566.969 371.503 567.61 384.78 565.803 397.758ZM334.842 490.58C335.402 486.559 336.813 482.486 339.548 478.302C351.061 460.758 379.412 459.55 395.282 460.407C406.507 460.998 412.655 463.502 419.768 466.352C426.638 469.127 434.432 472.241 449.049 474.826C465.232 477.671 479.188 480.164 495.462 476.005C511.865 471.823 526.526 462.284 539.118 447.595C559.623 423.653 567.425 390.038 559.591 359.952C557.562 352.103 545.649 312.531 510.476 298.799C486.831 289.546 457.946 290.047 429.193 300.203C426.49 301.136 423.768 302.194 421.095 303.217C409.603 307.577 397.752 312.097 385.273 311.12C369.123 309.843 356.006 299.817 343.304 290.144C332.474 281.873 321.223 273.291 308.331 270.438C294.297 267.301 278.992 271.467 268.435 281.24C257.87 291.055 252.583 305.999 254.645 320.277C256.429 332.614 263.321 343.717 269.968 354.449C272.446 358.472 274.995 362.588 277.284 366.753C294.043 397.279 279.288 417.5 263.65 438.907C255.619 449.919 247.33 461.276 242.853 474.643C235.743 496.013 236.223 518.312 244.158 535.858C253.052 555.611 272.168 569.515 291.703 570.418C312.615 571.428 333.071 556.017 336.388 536.74C338.348 525.39 336.959 516.278 335.798 508.255C334.892 502.042 334.045 496.302 334.842 490.58Z" fill="#EBC48B" fill-opacity="0.4"/>
<path d="M-793.063 121.782C-870.8 113.804 -970.919 83.4532 -971.212 44.1456L-971.901 -4.83457C-971.956 -8.73105 -968.818 -11.9221 -964.921 -11.933L873.681 -17.0621C877.516 -17.0728 880.646 -13.9954 880.699 -10.1606L882.884 145.089C882.967 151.02 875.756 154.998 870.431 152.384C802.139 118.861 559.234 73.4214 501.44 73.8518C303.889 75.3228 238.831 184.27 -4.11254 168.507C-258.757 151.985 -274.944 58.9043 -461.558 56.0604C-634.737 53.4213 -608.296 140.743 -793.063 121.782Z" fill="url(#paint0_linear_3098_4106)"/>
<path d="M-271.011 104.542C-334.564 96.8495 -416.436 67.782 -416.715 30.2686L-417.325 -16.2098C-417.376 -20.0842 -414.269 -23.2628 -410.395 -23.3013L961.867 -36.9227C965.724 -36.961 968.885 -33.8718 968.935 -30.0149L971.048 131.04C971.129 137.223 963.527 140.699 958.522 137.067C922.843 111.176 867.993 96.0605 822.849 96.3967C661.365 97.5992 655.03 216.054 456.423 200.763C248.25 184.735 254.964 39.5237 102.416 36.6195C-39.1494 33.9243 -119.956 122.826 -271.011 104.542Z" fill="#A3ABEB" fill-opacity="0.35"/>
</g>
<defs>
<linearGradient id="paint0_linear_3098_4106" x1="-44.2579" y1="75.6264" x2="-47.0604" y2="-212.101" gradientUnits="userSpaceOnUse">
<stop stop-color="#30CFD0" stop-opacity="0.1"/>
<stop offset="1" stop-color="#330867"/>
</linearGradient>
<clipPath id="clip0_3098_4106">
<rect width="430" height="932" fill="white"/>
</clipPath>
</defs>
</svg>
